<svg width="340" height="83" viewBox="0 0 340 83" fill="none" xmlns="http://www.w3.org/2000/svg">
<path d="M18.2237 18.52H32.9837C34.8237 18.52 36.5237 18.74 38.0837 19.18C39.6837 19.62 41.0437 20.28 42.1637 21.16C43.3237 22 44.2237 23.1 44.8637 24.46C45.5437 25.78 45.8837 27.34 45.8837 29.14C45.8837 31.58 45.2037 33.58 43.8437 35.14C42.4837 36.66 40.7237 37.78 38.5637 38.5V38.62C39.8437 38.7 41.0437 39.04 42.1637 39.64C43.2837 40.2 44.2437 40.96 45.0437 41.92C45.8837 42.84 46.5437 43.92 47.0237 45.16C47.5037 46.4 47.7437 47.74 47.7437 49.18C47.7437 51.1 47.3437 52.8 46.5437 54.28C45.7837 55.72 44.7237 56.94 43.3637 57.94C42.0037 58.94 40.4237 59.7 38.6237 60.22C36.8237 60.74 34.8837 61 32.8037 61H18.2237V18.52ZM23.9837 36.16H31.8437C32.9237 36.16 33.9437 36.06 34.9037 35.86C35.8637 35.62 36.7037 35.24 37.4237 34.72C38.1437 34.2 38.7037 33.54 39.1037 32.74C39.5437 31.94 39.7637 30.96 39.7637 29.8C39.7637 28.12 39.2237 26.66 38.1437 25.42C37.0637 24.18 35.3637 23.56 33.0437 23.56H23.9837V36.16ZM23.9837 55.96H32.4437C33.3237 55.96 34.2837 55.88 35.3237 55.72C36.4037 55.52 37.4037 55.16 38.3237 54.64C39.2437 54.08 40.0237 53.34 40.6637 52.42C41.3037 51.5 41.6237 50.28 41.6237 48.76C41.6237 46.24 40.8037 44.36 39.1637 43.12C37.5237 41.84 35.3037 41.2 32.5037 41.2H23.9837V55.96ZM54.7566 36.04C56.2766 34.64 58.0366 33.6 60.0366 32.92C62.0366 32.2 64.0366 31.84 66.0366 31.84C68.1166 31.84 69.8966 32.1 71.3766 32.62C72.8966 33.14 74.1366 33.84 75.0966 34.72C76.0566 35.6 76.7566 36.62 77.1966 37.78C77.6766 38.9 77.9166 40.08 77.9166 41.32V55.84C77.9166 56.84 77.9366 57.76 77.9766 58.6C78.0166 59.44 78.0766 60.24 78.1566 61H73.3566C73.2366 59.56 73.1766 58.12 73.1766 56.68H73.0566C71.8566 58.52 70.4366 59.82 68.7966 60.58C67.1566 61.34 65.2566 61.72 63.0966 61.72C61.7766 61.72 60.5166 61.54 59.3166 61.18C58.1166 60.82 57.0566 60.28 56.1366 59.56C55.2566 58.84 54.5566 57.96 54.0366 56.92C53.5166 55.84 53.2566 54.6 53.2566 53.2C53.2566 51.36 53.6566 49.82 54.4566 48.58C55.2966 47.34 56.4166 46.34 57.8166 45.58C59.2566 44.78 60.9166 44.22 62.7966 43.9C64.7166 43.54 66.7566 43.36 68.9166 43.36H72.8766V42.16C72.8766 41.44 72.7366 40.72 72.4566 40C72.1766 39.28 71.7566 38.64 71.1966 38.08C70.6366 37.48 69.9366 37.02 69.0966 36.7C68.2566 36.34 67.2566 36.16 66.0966 36.16C65.0566 36.16 64.1366 36.26 63.3366 36.46C62.5766 36.66 61.8766 36.92 61.2366 37.24C60.5966 37.52 60.0166 37.86 59.4966 38.26C58.9766 38.66 58.4766 39.04 57.9966 39.4L54.7566 36.04ZM69.9966 47.32C68.7166 47.32 67.3966 47.4 66.0366 47.56C64.7166 47.68 63.4966 47.94 62.3766 48.34C61.2966 48.74 60.3966 49.3 59.6766 50.02C58.9966 50.74 58.6566 51.66 58.6566 52.78C58.6566 54.42 59.1966 55.6 60.2766 56.32C61.3966 57.04 62.8966 57.4 64.7766 57.4C66.2566 57.4 67.5166 57.16 68.5566 56.68C69.5966 56.16 70.4366 55.5 71.0766 54.7C71.7166 53.9 72.1766 53.02 72.4566 52.06C72.7366 51.06 72.8766 50.08 72.8766 49.12V47.32H69.9966ZM86.1699 32.56H91.5699V61H86.1699V32.56ZM84.9099 22.36C84.9099 21.28 85.2899 20.36 86.0499 19.6C86.8499 18.8 87.7899 18.4 88.8699 18.4C89.9499 18.4 90.8699 18.8 91.6299 19.6C92.4299 20.36 92.8299 21.28 92.8299 22.36C92.8299 23.44 92.4299 24.38 91.6299 25.18C90.8699 25.94 89.9499 26.32 88.8699 26.32C87.7899 26.32 86.8499 25.94 86.0499 25.18C85.2899 24.38 84.9099 23.44 84.9099 22.36ZM100.584 15.64H105.984V61H100.584V15.64ZM118.658 48.76C118.658 50 118.918 51.14 119.438 52.18C119.998 53.18 120.718 54.04 121.598 54.76C122.478 55.48 123.498 56.04 124.658 56.44C125.818 56.84 127.018 57.04 128.258 57.04C129.938 57.04 131.398 56.66 132.638 55.9C133.878 55.1 135.018 54.06 136.058 52.78L140.138 55.9C137.138 59.78 132.938 61.72 127.538 61.72C125.298 61.72 123.258 61.34 121.418 60.58C119.618 59.82 118.078 58.78 116.798 57.46C115.558 56.1 114.598 54.52 113.918 52.72C113.238 50.88 112.898 48.9 112.898 46.78C112.898 44.66 113.258 42.7 113.978 40.9C114.738 39.06 115.758 37.48 117.038 36.16C118.358 34.8 119.918 33.74 121.718 32.98C123.518 32.22 125.478 31.84 127.598 31.84C130.118 31.84 132.238 32.28 133.958 33.16C135.718 34.04 137.158 35.2 138.278 36.64C139.398 38.04 140.198 39.64 140.678 41.44C141.198 43.2 141.458 45 141.458 46.84V48.76H118.658ZM135.698 44.44C135.658 43.24 135.458 42.14 135.098 41.14C134.778 40.14 134.278 39.28 133.598 38.56C132.918 37.8 132.058 37.22 131.018 36.82C130.018 36.38 128.838 36.16 127.478 36.16C126.158 36.16 124.938 36.42 123.818 36.94C122.738 37.42 121.818 38.06 121.058 38.86C120.298 39.66 119.698 40.56 119.258 41.56C118.858 42.52 118.658 43.48 118.658 44.44H135.698ZM144.498 32.56H150.738L159.198 54.76H159.318L167.358 32.56H173.178L159.678 67.12C159.198 68.36 158.698 69.48 158.178 70.48C157.658 71.52 157.038 72.4 156.318 73.12C155.598 73.84 154.718 74.4 153.678 74.8C152.678 75.2 151.438 75.4 149.958 75.4C149.158 75.4 148.338 75.34 147.498 75.22C146.698 75.14 145.918 74.94 145.158 74.62L145.818 69.7C146.898 70.14 147.978 70.36 149.058 70.36C149.898 70.36 150.598 70.24 151.158 70C151.758 69.8 152.258 69.48 152.658 69.04C153.098 68.64 153.458 68.16 153.738 67.6C154.018 67.04 154.298 66.4 154.578 65.68L156.318 61.18L144.498 32.56ZM195.997 18.52H201.757V36.88H202.237L221.017 18.52H229.057L208.537 38.14L230.437 61H222.037L202.237 39.76H201.757V61H195.997V18.52ZM233.643 36.04C235.163 34.64 236.923 33.6 238.923 32.92C240.923 32.2 242.923 31.84 244.923 31.84C247.003 31.84 248.783 32.1 250.263 32.62C251.783 33.14 253.023 33.84 253.983 34.72C254.943 35.6 255.643 36.62 256.083 37.78C256.563 38.9 256.803 40.08 256.803 41.32V55.84C256.803 56.84 256.823 57.76 256.863 58.6C256.903 59.44 256.963 60.24 257.043 61H252.243C252.123 59.56 252.063 58.12 252.063 56.68H251.943C250.743 58.52 249.323 59.82 247.683 60.58C246.043 61.34 244.143 61.72 241.983 61.72C240.663 61.72 239.403 61.54 238.203 61.18C237.003 60.82 235.943 60.28 235.023 59.56C234.143 58.84 233.443 57.96 232.923 56.92C232.403 55.84 232.143 54.6 232.143 53.2C232.143 51.36 232.543 49.82 233.343 48.58C234.183 47.34 235.303 46.34 236.703 45.58C238.143 44.78 239.803 44.22 241.683 43.9C243.603 43.54 245.643 43.36 247.803 43.36H251.763V42.16C251.763 41.44 251.623 40.72 251.343 40C251.063 39.28 250.643 38.64 250.083 38.08C249.523 37.48 248.823 37.02 247.983 36.7C247.143 36.34 246.143 36.16 244.983 36.16C243.943 36.16 243.023 36.26 242.223 36.46C241.463 36.66 240.763 36.92 240.123 37.24C239.483 37.52 238.903 37.86 238.383 38.26C237.863 38.66 237.363 39.04 236.883 39.4L233.643 36.04ZM248.883 47.32C247.603 47.32 246.283 47.4 244.923 47.56C243.603 47.68 242.383 47.94 241.263 48.34C240.183 48.74 239.283 49.3 238.563 50.02C237.883 50.74 237.543 51.66 237.543 52.78C237.543 54.42 238.083 55.6 239.163 56.32C240.283 57.04 241.783 57.4 243.663 57.4C245.143 57.4 246.403 57.16 247.443 56.68C248.483 56.16 249.323 55.5 249.963 54.7C250.603 53.9 251.063 53.02 251.343 52.06C251.623 51.06 251.763 50.08 251.763 49.12V47.32H248.883ZM264.637 32.56H270.037V36.94H270.157C270.837 35.42 272.017 34.2 273.697 33.28C275.377 32.32 277.317 31.84 279.517 31.84C280.877 31.84 282.177 32.06 283.417 32.5C284.697 32.9 285.797 33.54 286.717 34.42C287.677 35.3 288.437 36.44 288.997 37.84C289.557 39.2 289.837 40.82 289.837 42.7V61H284.437V44.2C284.437 42.88 284.257 41.76 283.897 40.84C283.537 39.88 283.057 39.12 282.457 38.56C281.857 37.96 281.157 37.54 280.357 37.3C279.597 37.02 278.797 36.88 277.957 36.88C276.837 36.88 275.797 37.06 274.837 37.42C273.877 37.78 273.037 38.36 272.317 39.16C271.597 39.92 271.037 40.9 270.637 42.1C270.237 43.3 270.037 44.72 270.037 46.36V61H264.637V32.56ZM302.056 48.76C302.056 50 302.316 51.14 302.836 52.18C303.396 53.18 304.116 54.04 304.996 54.76C305.876 55.48 306.896 56.04 308.056 56.44C309.216 56.84 310.416 57.04 311.656 57.04C313.336 57.04 314.796 56.66 316.036 55.9C317.276 55.1 318.416 54.06 319.456 52.78L323.536 55.9C320.536 59.78 316.336 61.72 310.936 61.72C308.696 61.72 306.656 61.34 304.816 60.58C303.016 59.82 301.476 58.78 300.196 57.46C298.956 56.1 297.996 54.52 297.316 52.72C296.636 50.88 296.296 48.9 296.296 46.78C296.296 44.66 296.656 42.7 297.376 40.9C298.136 39.06 299.156 37.48 300.436 36.16C301.756 34.8 303.316 33.74 305.116 32.98C306.916 32.22 308.876 31.84 310.996 31.84C313.516 31.84 315.636 32.28 317.356 33.16C319.116 34.04 320.556 35.2 321.676 36.64C322.796 38.04 323.596 39.64 324.076 41.44C324.596 43.2 324.856 45 324.856 46.84V48.76H302.056ZM319.096 44.44C319.056 43.24 318.856 42.14 318.496 41.14C318.176 40.14 317.676 39.28 316.996 38.56C316.316 37.8 315.456 37.22 314.416 36.82C313.416 36.38 312.236 36.16 310.876 36.16C309.556 36.16 308.336 36.42 307.216 36.94C306.136 37.42 305.216 38.06 304.456 38.86C303.696 39.66 303.096 40.56 302.656 41.56C302.256 42.52 302.056 43.48 302.056 44.44H319.096Z" fill="#461878"/>
</svg>
